<?xml version="1.0" encoding="UTF-8"?>
<svg id="Layer_2" data-name="Layer 2" xmlns="http://www.w3.org/2000/svg" viewBox="0 0 640 640">
  <defs>
    <style>
      .cls-1 {
        fill: #58595b;
      }

      .cls-1, .cls-2, .cls-3, .cls-4, .cls-5, .cls-6, .cls-7 {
        stroke: #231f20;
        stroke-miterlimit: 10;
      }

      .cls-2 {
        fill: #f26522;
      }

      .cls-3 {
        fill: #27aae1;
      }

      .cls-4 {
        fill: #be1e2d;
      }

      .cls-5 {
        fill: #fff;
      }

      .cls-6 {
        fill: #ed1c24;
      }

      .cls-7 {
        fill: #231f20;
      }
    </style>
  </defs>
  <path class="cls-1" d="M255.69,76.63c0-20.02,35.57-42.95,68.42-42.95s68.47,23.7,64.58,43.34c-1.31,6.6-11.42,1.9-16.98,1.14-22.24-3.07-23.22-3.89-46.89-3.05s-37.23-.38-51.63.69c-3.8.28-17.49,5.84-17.49.83Z"/>
  <path class="cls-1" d="M167.78,118.08c0-8.66,11.7-16.04,27.54-22.76,10.78-4.58,25.16-8.06,42.22-12.85,24-6.74,53.49-10.25,85.46-10.25s56.88,3.67,81.12,8.27c15.15,2.87,31,8.81,42.33,13.36,18.89,7.59,32.68,13.94,32.68,23.13,0,7.39-8.36,12.31-22.76,18.36-13.25,5.56-36.04,10.22-54.29,13.93-16.27,3.31-16.4-10.54-37.14-18.71-11.14-4.39-31.99-5.14-43.62-5.14-12.56,0-26.55-.64-37.89,2.94-21.3,6.72-29.62,22.58-46.63,18.73-34.45-7.81-69.03-15.62-69.03-29.01Z"/>
  <polygon class="cls-3" points="247.73 146.46 283.79 127.84 307.43 124.89 340 125.53 365.31 130.05 378.24 137.39 392.27 148.21 373.5 151.35 356.24 138.12 333.97 134.9 313.64 135.12 295.87 136.19 283.02 140.04 271.25 149.25 247.73 146.46"/>
  <path class="cls-1" d="M272.34,146.38c0-2.76,3.22-5.31,8.73-7.44,9.19-3.54,24.75-5.87,42.39-5.87,14.12,0,26.9,1.49,36.15,3.9,9.25,2.41,14.97,5.73,14.97,9.41,0,4.18-7.42,7.91-19.02,10.35-4.74,1-5.4-8.06-11.62-11.12-5.29-2.6-16.03-3.81-21.62-3.81-3.8,0-15.48.72-18.8,3.37-4.3,3.43-5.59,12.63-9.64,12.06-8.01-1.12-9.28-1.89-14.02-3.9s-7.53-4.41-7.53-6.95Z"/>
  <polygon class="cls-1" points="291.75 146.62 260.97 224.59 87.75 224.59 84.89 419.92 555.11 419.92 552.25 224.59 391.7 224.59 355.27 145.16 337.87 141.8 322.33 141.8 309.23 141.15 291.75 146.62"/>
  <polygon class="cls-3" points="270.89 224.06 380.56 224.06 346.65 149.77 302.23 149.77 270.89 224.06"/>
  <polygon class="cls-3" points="290.92 238.68 290.92 278.42 167.78 278.42 167.78 302.78 264 302.78 264.86 340.38 170 340.38 167.78 369.01 278.1 369.01 283.66 366.87 292.63 367.3 292.63 407.89 98.64 407.89 98.64 399.34 109.33 395.07 111.03 251.93 98.64 250.65 98.64 238.68 290.92 238.68"/>
  <polygon class="cls-3" points="384.07 407.89 384.07 397.21 390.91 397.21 394.75 392.51 394.75 280.56 328.95 280.56 325.72 284.83 320 283.98 320 238.68 534.47 238.68 534.47 284.83 526.36 281.41 459.27 280.99 459.27 392.08 463.97 396.35 470.81 396.78 471.24 407.89 384.07 407.89"/>
  <path class="cls-7" d="M95.61,224.19v-7.69h6.44c-.15-15.72.95-33.45,6.83-44.66.82-1.56,6.54-9.36,11.04-11.37s10.59-4.74,16.52-4.86c6.64-.13,10.87,1.73,15.63,4.63s8.43,6.22,9.11,7.17c2.08,2.9,2.82.97,6.25,10.46,4.21,11.64,3.4,38.62,3.4,38.62l6.44-.4v8.09h-81.66Z"/>
  <path class="cls-6" d="M109.41,216.51h54.31c0-8.75.17-23.55-2.59-30.72-2.17-5.62-5.53-10.75-8.45-14.75-5.2-7.14-12.41-8.15-16.24-7.64-4.09.54-14.06,2.6-17.55,8.05s-4.35,7.8-6.84,14.35c-4.13,10.86-2.64,30.72-2.64,30.72Z"/>
  <path class="cls-7" d="M76.54,189.79c-.08,3.91,11.14,4.81,15.95,3.55,4.14-1.09,2.97-1.97,2.97-3.55s1.15-2.26-2.97-3.41c-4.5-1.25-15.89.14-15.95,3.41Z"/>
  <path class="cls-7" d="M169.59,138.41c-3.19-2.25-10.23,6.53-11.87,11.22-1.42,4.04-.03,3.56,1.27,4.44s1.23,2.22,4.49-.55c3.56-3.03,8.79-13.23,6.11-15.12Z"/>
  <path class="cls-7" d="M137.74,130.68c-3.91-.02-4.64,11.21-3.3,16,1.15,4.12,2.01,2.94,3.59,2.91s2.28,1.12,3.36-3.02c1.18-4.52-.38-15.88-3.65-15.89Z"/>
  <path class="cls-7" d="M103.46,138.36c-3.27,2.13,2.28,11.92,6.03,15.18,3.23,2.81,3.3,1.35,4.6.46s2.52-.32,1.15-4.37c-1.49-4.43-9.04-13.06-11.78-11.28Z"/>
  <path class="cls-7" d="M82.29,160.28c-1.67,3.53,8.18,8.96,13.09,9.78,4.22.71,3.51-.58,4.16-2.01s1.98-1.59-1.31-4.33c-3.59-2.99-14.54-6.4-15.94-3.44Z"/>
  <path class="cls-7" d="M191.87,160.37c-1.82-3.46-12.08,1.16-15.68,4.59-3.1,2.95-1.65,3.16-.89,4.54s.08,2.54,4.24,1.55c4.55-1.07,13.85-7.78,12.32-10.68Z"/>
  <path class="cls-7" d="M199,190.1c.11-3.91-11.1-4.91-15.92-3.68-4.15,1.05-2.98,1.94-3,3.52s-1.17,2.25,2.94,3.43c4.49,1.29,15.89,0,15.98-3.27Z"/>
  <polygon class="cls-3" points="206.47 537.76 429.59 537.76 453.35 597.85 184.58 597.85 206.47 537.76"/>
  <polygon class="cls-1" points="190.17 537.76 206.47 537.76 184.58 597.85 165.48 597.85 190.17 537.76"/>
  <polygon class="cls-1" points="447.29 537.76 429.59 537.76 453.35 597.85 471.05 597.85 447.29 537.76"/>
  <polygon class="cls-4" points="119.61 433.9 119.61 450.25 101.35 450.25 101.35 470.41 117.71 470.41 117.71 486.77 101.35 486.77 101.35 508.45 119.61 508.45 119.61 523.67 84.89 523.67 84.89 433.9 119.61 433.9"/>
  <polygon class="cls-4" points="165.48 523.67 155.37 523.67 144.72 471.55 144.72 523.67 128.74 523.67 128.74 435.42 151.56 435.42 159.17 482.21 162.97 481.82 170.2 435.42 193.4 435.42 193.4 523.67 178.57 523.67 176.67 470.41 165.48 523.67"/>
  <polygon class="cls-4" points="239.1 434.66 239.1 451.01 220.85 451.01 220.85 471.17 237.2 471.17 237.2 487.53 220.85 487.53 220.85 509.21 239.1 509.21 239.1 524.43 204.38 524.43 204.38 434.66 239.1 434.66"/>
  <polygon class="cls-4" points="392.72 434.66 392.72 451.01 374.46 451.01 374.46 471.17 390.82 471.17 390.82 487.53 374.46 487.53 374.46 509.21 392.72 509.21 392.72 524.43 357.99 524.43 357.99 434.66 392.72 434.66"/>
  <path class="cls-4" d="M264.15,523.29v-31.57h4.94l8.37,31.57,15.98.76-10.65-37.66c13.69-8.75,9.84-34.23,9.84-34.23.26-3.69-2.99-10.95-5.46-12.91-5.16-4.1-13.51-4.97-13.51-4.97l-26.25-.76v90.53l16.74-.76Z"/>
  <polygon class="cls-5" points="262.25 476.12 270.24 476.12 274.04 471.55 274.04 453.3 271 449.87 262.25 449.87 262.25 476.12"/>
  <path class="cls-4" d="M331.01,506.34c-5.24,9.29-12.05,0-12.05,0v-50.03c1.07-8.1,6.24-10.17,9.43-8.1,1.89,1.23,2.65,5.6,2.62,6.43v10.96s16.44.71,16.44.71l-1.19-18.1s-.48-9.77-18.82-13.56-25.27,14.04-25.27,14.04l.02,45.98s-1.43,34.3,19.53,31.92,15.25-9.05,15.25-9.05l2.86.24.8,6.98c3.1.79,4.13.76,5.64.13,1.59-.67,1.19-2.58,1.19-2.58v-44.59l-22.64.45v13.3l7.01-.15-.81,15.03Z"/>
  <polygon class="cls-4" points="417.3 524.43 417.3 479.54 432.91 524.43 448.04 524.43 447.06 434.66 432.67 434.66 432.67 475.54 432.67 478.23 429.59 477.74 417.3 434.66 401.2 434.66 401.2 524.43 417.3 524.43"/>
  <path class="cls-4" d="M499.68,465.92h-16.16v-12.23c-4.64-4.64-10.34,0-10.34,0v53.29c6.36,3.71,11.27,0,11.27,0l.13-15.51h15.1s7.17,34.2-17.75,34.46-25.05-15.24-25.05-15.24l-.53-60.71s5.17-17.8,22.8-17.26c.99.03,4.88-.14,5.7-.01,3.29.53,3.53.63,5.57,1.1,8.75,2,8.09,12.46,8.09,12.46l1.18,19.65Z"/>
  <polygon class="cls-4" points="519.91 434.41 529.34 467.12 539.22 434.41 556.01 434.41 537.96 487.55 537.96 524.18 520.81 524.18 519.93 487.57 501.53 434.41 519.91 434.41"/>
  <path class="cls-3" d="M183.16,110.99c0-11.13,81.67-34.15,139.17-34.15s143.65,26.08,143.65,37.21-83.91-12.88-141.41-12.88-141.41,20.94-141.41,9.81Z"/>
  <path class="cls-5" d="M265.52,67.87l25.49-10.79,32.46-3.72,28.46,2.39,28.63,11.19c-47.46-56.37-111.89-12.74-115.04.93Z"/>
  <circle class="cls-3" cx="314.97" cy="397.63" r="13.22"/>
  <circle class="cls-3" cx="492.36" cy="397.63" r="13.22"/>
  <path class="cls-2" d="M134.07,204.62v-14.63c-11.78-4.44,2.92-10.71,2.92-10.71,12.95,7.32,2.21,10.45,2.21,10.45v14.89h-5.13Z"/>
</svg>